<svg width="204" height="38" viewBox="0 0 204 38" fill="none" xmlns="http://www.w3.org/2000/svg">
<g filter="url(#filter0_dd_13001_399)">
<rect x="3.1" y="2.1" width="31.8" height="31.8" rx="7.9" fill="white"/>
<rect x="3.1" y="2.1" width="31.8" height="31.8" rx="7.9" fill="url(#paint0_linear_13001_399)"/>
<rect x="3.1" y="2.1" width="31.8" height="31.8" rx="7.9" stroke="#D0D5DD" stroke-width="0.2"/>
<path d="M18.3546 13.1828C22.7105 11.4504 27.4742 12.8185 29.6373 14.9133C30.106 15.3671 30.5041 15.8275 30.845 16.2852C31.0394 15.2107 31.0552 14.1405 30.8681 13.1055C30.1847 9.32649 26.6195 7.18561 23.4233 8.29149C20.2415 9.3924 19.0005 11.5321 19.0005 11.5321C19.0005 11.5321 17.7595 9.3924 14.5777 8.29149C11.3812 7.18561 7.81603 9.32672 7.1328 13.1055C6.62842 15.8944 7.58356 18.9392 9.61033 21.6298C10.0372 21.7732 10.4847 21.8809 10.9586 21.9431C13.7978 22.3163 14.8184 21.557 16.0178 21.0486C16.8142 20.7113 17.4134 21.0942 17.3843 21.3626C17.3392 21.7786 15.7693 22.4895 16.106 22.6388C17.4351 23.2285 19.0718 23.2334 20.3053 22.18C21.838 20.8712 22.4114 21.7659 22.4114 21.7659C22.4114 21.7659 21.6502 23.7076 19.3581 24.6717C17.4457 25.4761 15.4419 25.6743 13.6107 25.4683C15.19 26.5846 17.0035 27.5204 19.0005 28.1883C24.7099 26.2784 28.9276 22.1871 30.4145 17.9096C29.4072 16.9157 28.1716 16.2996 26.6988 16.0763C23.8674 15.6471 22.8322 16.3863 21.6228 16.8708C20.8198 17.1926 20.2285 16.7978 20.263 16.5299C20.3161 16.1148 21.8999 15.4351 21.5661 15.279C20.249 14.6633 18.6125 14.626 17.3585 15.6549C15.8003 16.9332 15.2446 16.0274 15.2446 16.0274C15.2446 16.0274 16.0438 14.1015 18.3546 13.1828ZM17.2709 18.5052H18.3709V17.4052H19.6296V18.5052H20.7296V19.7639H19.6296V20.8639H18.3709V19.7639H17.2709V18.5052Z" fill="url(#paint1_linear_13001_399)"/>
<path d="M17.2709 18.5052H18.3709V17.4052H19.6296V18.5052H20.7295V19.7639H19.6378C21.2597 20.5834 24.2383 21.8027 27.8177 22.3451C28.9956 20.9517 29.8813 19.4428 30.4143 17.9096C29.4069 16.9157 28.1713 16.2996 26.6986 16.0763C23.8672 15.647 22.8319 16.3863 21.6226 16.8708C20.8196 17.1926 20.2282 16.7978 20.2627 16.5299C20.3159 16.1148 21.8997 15.4351 21.5659 15.279C20.2488 14.6633 18.6123 14.626 17.3583 15.6548C15.8 16.9332 15.2443 16.0274 15.2443 16.0274C15.2443 16.0274 16.0438 14.1013 18.3543 13.1823C22.7102 11.4499 27.4739 12.818 29.637 14.9128C30.1057 15.3666 30.5038 15.8271 30.8447 16.2847C31.0392 15.2102 31.055 14.14 30.8679 13.105C30.1844 9.326 26.6192 7.18512 23.423 8.291C20.2412 9.39191 19.0002 11.5316 19.0002 11.5316C19.0002 11.5316 17.7592 9.39191 14.5774 8.291C12.7519 7.65927 10.8067 8.0883 9.34619 9.27521C10.0323 10.7442 10.836 12.1168 13.1254 14.8773C14.9868 17.1222 17.2709 18.5052 17.2709 18.5052Z" fill="url(#paint2_linear_13001_399)"/>
<path opacity="0.31" d="M27.277 9.64954C24.2712 8.13944 21.169 10.4892 20.1851 11.7299C21.882 11.3725 23.3668 11.1892 25.2457 11.5839C28.0252 12.1679 29.0654 13.1715 30.3064 14.6542C30.0871 11.9069 28.3519 10.1896 27.277 9.64954Z" fill="url(#paint3_linear_13001_399)"/>
</g>
<path d="M45.264 28L51.432 10.12H55.656L61.824 28H58.272L57 24.16H50.088L48.792 28H45.264ZM51.024 21.28H56.064L53.088 12.376H54L51.024 21.28ZM67.5099 28.288C66.5979 28.288 65.8059 28.136 65.1339 27.832C64.4619 27.528 63.9419 27.096 63.5739 26.536C63.2059 25.96 63.0219 25.296 63.0219 24.544C63.0219 23.824 63.1819 23.184 63.5019 22.624C63.8219 22.048 64.3179 21.568 64.9899 21.184C65.6619 20.8 66.5099 20.528 67.5339 20.368L71.8059 19.672V22.072L68.1339 22.696C67.5099 22.808 67.0459 23.008 66.7419 23.296C66.4379 23.584 66.2859 23.96 66.2859 24.424C66.2859 24.872 66.4539 25.232 66.7899 25.504C67.1419 25.76 67.5739 25.888 68.0859 25.888C68.7419 25.888 69.3179 25.752 69.8139 25.48C70.3259 25.192 70.7179 24.8 70.9899 24.304C71.2779 23.808 71.4219 23.264 71.4219 22.672V19.312C71.4219 18.752 71.1979 18.288 70.7499 17.92C70.3179 17.536 69.7419 17.344 69.0219 17.344C68.3499 17.344 67.7499 17.528 67.2219 17.896C66.7099 18.248 66.3339 18.72 66.0939 19.312L63.5259 18.064C63.7819 17.376 64.1819 16.784 64.7259 16.288C65.2859 15.776 65.9419 15.376 66.6939 15.088C67.4459 14.8 68.2619 14.656 69.1419 14.656C70.2139 14.656 71.1579 14.856 71.9739 15.256C72.7899 15.64 73.4219 16.184 73.8699 16.888C74.3339 17.576 74.5659 18.384 74.5659 19.312V28H71.5899V25.768L72.2619 25.72C71.9259 26.28 71.5259 26.752 71.0619 27.136C70.5979 27.504 70.0699 27.792 69.4779 28C68.8859 28.192 68.2299 28.288 67.5099 28.288ZM77.4718 28V14.944H80.4238V17.848L80.1838 17.416C80.4878 16.44 80.9598 15.76 81.5998 15.376C82.2558 14.992 83.0398 14.8 83.9518 14.8H84.7198V17.584H83.5918C82.6958 17.584 81.9758 17.864 81.4318 18.424C80.8878 18.968 80.6158 19.736 80.6158 20.728V28H77.4718ZM92.8324 28.288C91.5524 28.288 90.3844 27.992 89.3284 27.4C88.2884 26.808 87.4564 26 86.8324 24.976C86.2244 23.952 85.9204 22.784 85.9204 21.472C85.9204 20.16 86.2244 18.992 86.8324 17.968C87.4564 16.944 88.2884 16.136 89.3284 15.544C90.3684 14.952 91.5364 14.656 92.8324 14.656C94.1124 14.656 95.2724 14.952 96.3124 15.544C97.3524 16.136 98.1764 16.944 98.7844 17.968C99.4084 18.976 99.7204 20.144 99.7204 21.472C99.7204 22.784 99.4084 23.952 98.7844 24.976C98.1604 26 97.3284 26.808 96.2884 27.4C95.2484 27.992 94.0964 28.288 92.8324 28.288ZM92.8324 25.408C93.5364 25.408 94.1524 25.24 94.6804 24.904C95.2244 24.568 95.6484 24.104 95.9524 23.512C96.2724 22.904 96.4324 22.224 96.4324 21.472C96.4324 20.704 96.2724 20.032 95.9524 19.456C95.6484 18.864 95.2244 18.4 94.6804 18.064C94.1524 17.712 93.5364 17.536 92.8324 17.536C92.1124 17.536 91.4804 17.712 90.9364 18.064C90.3924 18.4 89.9604 18.864 89.6404 19.456C89.3364 20.032 89.1844 20.704 89.1844 21.472C89.1844 22.224 89.3364 22.904 89.6404 23.512C89.9604 24.104 90.3924 24.568 90.9364 24.904C91.4804 25.24 92.1124 25.408 92.8324 25.408ZM108.441 33.28C107.465 33.28 106.561 33.12 105.729 32.8C104.897 32.48 104.177 32.032 103.569 31.456C102.977 30.896 102.545 30.232 102.273 29.464L105.201 28.36C105.393 28.968 105.769 29.456 106.329 29.824C106.905 30.208 107.609 30.4 108.441 30.4C109.081 30.4 109.641 30.28 110.121 30.04C110.617 29.8 111.001 29.448 111.273 28.984C111.545 28.536 111.681 27.992 111.681 27.352V24.376L112.281 25.096C111.833 25.88 111.233 26.472 110.481 26.872C109.729 27.272 108.873 27.472 107.913 27.472C106.697 27.472 105.609 27.192 104.649 26.632C103.689 26.072 102.937 25.304 102.393 24.328C101.849 23.352 101.577 22.256 101.577 21.04C101.577 19.808 101.849 18.712 102.393 17.752C102.937 16.792 103.681 16.04 104.625 15.496C105.569 14.936 106.641 14.656 107.841 14.656C108.817 14.656 109.673 14.864 110.409 15.28C111.161 15.68 111.785 16.264 112.281 17.032L111.849 17.824V14.944H114.825V27.352C114.825 28.488 114.545 29.504 113.985 30.4C113.441 31.296 112.689 32 111.729 32.512C110.785 33.024 109.689 33.28 108.441 33.28ZM108.297 24.568C108.969 24.568 109.553 24.424 110.049 24.136C110.561 23.832 110.961 23.416 111.249 22.888C111.537 22.36 111.681 21.752 111.681 21.064C111.681 20.392 111.529 19.792 111.225 19.264C110.937 18.72 110.537 18.296 110.025 17.992C109.529 17.688 108.953 17.536 108.297 17.536C107.641 17.536 107.049 17.688 106.521 17.992C105.993 18.296 105.577 18.72 105.273 19.264C104.985 19.792 104.841 20.392 104.841 21.064C104.841 21.736 104.985 22.336 105.273 22.864C105.577 23.392 105.985 23.808 106.497 24.112C107.025 24.416 107.625 24.568 108.297 24.568ZM119.345 33.28C118.993 33.28 118.649 33.248 118.313 33.184C117.977 33.136 117.673 33.04 117.401 32.896V30.28C117.609 30.328 117.857 30.376 118.145 30.424C118.449 30.472 118.729 30.496 118.985 30.496C119.705 30.496 120.225 30.328 120.545 29.992C120.881 29.672 121.177 29.24 121.433 28.696L122.297 26.68L122.249 29.32L116.561 14.944H119.945L123.929 25.552H122.729L126.689 14.944H130.097L124.409 29.32C124.073 30.152 123.665 30.864 123.185 31.456C122.705 32.048 122.145 32.496 121.505 32.8C120.881 33.12 120.161 33.28 119.345 33.28ZM135.315 28.288C134.403 28.288 133.611 28.136 132.939 27.832C132.267 27.528 131.747 27.096 131.379 26.536C131.011 25.96 130.827 25.296 130.827 24.544C130.827 23.824 130.987 23.184 131.307 22.624C131.627 22.048 132.123 21.568 132.795 21.184C133.467 20.8 134.315 20.528 135.339 20.368L139.611 19.672V22.072L135.939 22.696C135.315 22.808 134.851 23.008 134.547 23.296C134.243 23.584 134.091 23.96 134.091 24.424C134.091 24.872 134.259 25.232 134.595 25.504C134.947 25.76 135.379 25.888 135.891 25.888C136.547 25.888 137.123 25.752 137.619 25.48C138.131 25.192 138.523 24.8 138.795 24.304C139.083 23.808 139.227 23.264 139.227 22.672V19.312C139.227 18.752 139.003 18.288 138.555 17.92C138.123 17.536 137.547 17.344 136.827 17.344C136.155 17.344 135.555 17.528 135.027 17.896C134.515 18.248 134.139 18.72 133.899 19.312L131.331 18.064C131.587 17.376 131.987 16.784 132.531 16.288C133.091 15.776 133.747 15.376 134.499 15.088C135.251 14.8 136.067 14.656 136.947 14.656C138.019 14.656 138.963 14.856 139.779 15.256C140.595 15.64 141.227 16.184 141.675 16.888C142.139 17.576 142.371 18.384 142.371 19.312V28H139.395V25.768L140.067 25.72C139.731 26.28 139.331 26.752 138.867 27.136C138.403 27.504 137.875 27.792 137.283 28C136.691 28.192 136.035 28.288 135.315 28.288Z" fill="#1D2129"/>
<path d="M153.941 28.288C152.661 28.288 151.477 28.056 150.389 27.592C149.317 27.128 148.373 26.48 147.557 25.648C146.757 24.816 146.133 23.84 145.685 22.72C145.237 21.6 145.013 20.376 145.013 19.048C145.013 17.72 145.229 16.496 145.661 15.376C146.109 14.24 146.733 13.264 147.533 12.448C148.349 11.616 149.301 10.976 150.389 10.528C151.477 10.064 152.661 9.832 153.941 9.832C155.221 9.832 156.365 10.048 157.372 10.48C158.397 10.912 159.261 11.488 159.965 12.208C160.669 12.912 161.173 13.688 161.477 14.536L158.549 15.904C158.213 15.008 157.645 14.272 156.845 13.696C156.045 13.104 155.077 12.808 153.941 12.808C152.821 12.808 151.829 13.072 150.965 13.6C150.117 14.128 149.453 14.856 148.973 15.784C148.509 16.712 148.277 17.8 148.277 19.048C148.277 20.296 148.509 21.392 148.973 22.336C149.453 23.264 150.117 23.992 150.965 24.52C151.829 25.048 152.821 25.312 153.941 25.312C155.077 25.312 156.045 25.024 156.845 24.448C157.645 23.856 158.213 23.112 158.549 22.216L161.477 23.584C161.173 24.432 160.669 25.216 159.965 25.936C159.261 26.64 158.397 27.208 157.372 27.64C156.365 28.072 155.221 28.288 153.941 28.288ZM167.588 28.288C166.676 28.288 165.884 28.136 165.212 27.832C164.54 27.528 164.02 27.096 163.652 26.536C163.284 25.96 163.1 25.296 163.1 24.544C163.1 23.824 163.26 23.184 163.58 22.624C163.9 22.048 164.396 21.568 165.068 21.184C165.74 20.8 166.588 20.528 167.612 20.368L171.884 19.672V22.072L168.212 22.696C167.588 22.808 167.124 23.008 166.82 23.296C166.516 23.584 166.364 23.96 166.364 24.424C166.364 24.872 166.532 25.232 166.868 25.504C167.22 25.76 167.652 25.888 168.164 25.888C168.82 25.888 169.396 25.752 169.892 25.48C170.404 25.192 170.796 24.8 171.068 24.304C171.356 23.808 171.5 23.264 171.5 22.672V19.312C171.5 18.752 171.276 18.288 170.828 17.92C170.396 17.536 169.82 17.344 169.1 17.344C168.428 17.344 167.828 17.528 167.3 17.896C166.788 18.248 166.412 18.72 166.172 19.312L163.604 18.064C163.86 17.376 164.26 16.784 164.804 16.288C165.364 15.776 166.02 15.376 166.772 15.088C167.524 14.8 168.34 14.656 169.22 14.656C170.292 14.656 171.236 14.856 172.052 15.256C172.868 15.64 173.5 16.184 173.948 16.888C174.412 17.576 174.644 18.384 174.644 19.312V28H171.668V25.768L172.34 25.72C172.004 26.28 171.604 26.752 171.14 27.136C170.676 27.504 170.148 27.792 169.556 28C168.964 28.192 168.308 28.288 167.588 28.288ZM177.55 28V14.944H180.502V17.848L180.262 17.416C180.566 16.44 181.038 15.76 181.678 15.376C182.334 14.992 183.118 14.8 184.03 14.8H184.798V17.584H183.67C182.774 17.584 182.054 17.864 181.51 18.424C180.966 18.968 180.694 19.736 180.694 20.728V28H177.55ZM192.719 28.288C191.375 28.288 190.199 27.984 189.191 27.376C188.183 26.768 187.399 25.944 186.839 24.904C186.279 23.864 185.999 22.712 185.999 21.448C185.999 20.136 186.279 18.976 186.839 17.968C187.415 16.944 188.191 16.136 189.167 15.544C190.159 14.952 191.263 14.656 192.479 14.656C193.503 14.656 194.399 14.824 195.167 15.16C195.951 15.496 196.615 15.96 197.159 16.552C197.703 17.144 198.119 17.824 198.407 18.592C198.695 19.344 198.839 20.16 198.839 21.04C198.839 21.264 198.823 21.496 198.791 21.736C198.775 21.976 198.735 22.184 198.671 22.36H188.59V19.96H196.895L195.407 21.088C195.551 20.352 195.511 19.696 195.287 19.12C195.079 18.544 194.727 18.088 194.231 17.752C193.751 17.416 193.167 17.248 192.479 17.248C191.823 17.248 191.239 17.416 190.727 17.752C190.215 18.072 189.823 18.552 189.551 19.192C189.295 19.816 189.199 20.576 189.263 21.472C189.199 22.272 189.303 22.984 189.575 23.608C189.863 24.216 190.279 24.688 190.823 25.024C191.383 25.36 192.023 25.528 192.743 25.528C193.463 25.528 194.071 25.376 194.567 25.072C195.079 24.768 195.479 24.36 195.767 23.848L198.311 25.096C198.055 25.72 197.655 26.272 197.111 26.752C196.567 27.232 195.919 27.608 195.167 27.88C194.431 28.152 193.615 28.288 192.719 28.288Z" fill="#84CC16"/>
<defs>
<filter id="filter0_dd_13001_399" x="0" y="0" width="38" height="38" filterUnits="userSpaceOnUse" color-interpolation-filters="sRGB">
<feFlood flood-opacity="0" result="BackgroundImageFix"/>
<feColorMatrix in="SourceAlpha" type="matrix" values="0 0 0 0 0 0 0 0 0 0 0 0 0 0 0 0 0 0 127 0" result="hardAlpha"/>
<feOffset dy="1"/>
<feGaussianBlur stdDeviation="1"/>
<feColorMatrix type="matrix" values="0 0 0 0 0.0627451 0 0 0 0 0.0941176 0 0 0 0 0.156863 0 0 0 0.06 0"/>
<feBlend mode="normal" in2="BackgroundImageFix" result="effect1_dropShadow_13001_399"/>
<feColorMatrix in="SourceAlpha" type="matrix" values="0 0 0 0 0 0 0 0 0 0 0 0 0 0 0 0 0 0 127 0" result="hardAlpha"/>
<feOffset dy="1"/>
<feGaussianBlur stdDeviation="1.5"/>
<feColorMatrix type="matrix" values="0 0 0 0 0.0627451 0 0 0 0 0.0941176 0 0 0 0 0.156863 0 0 0 0.1 0"/>
<feBlend mode="normal" in2="effect1_dropShadow_13001_399" result="effect2_dropShadow_13001_399"/>
<feBlend mode="normal" in="SourceGraphic" in2="effect2_dropShadow_13001_399" result="shape"/>
</filter>
<linearGradient id="paint0_linear_13001_399" x1="19" y1="2" x2="19" y2="34" gradientUnits="userSpaceOnUse">
<stop stop-color="white"/>
<stop offset="1" stop-color="#D0D5DD"/>
</linearGradient>
<linearGradient id="paint1_linear_13001_399" x1="10.1989" y1="24.2137" x2="27.8347" y2="6.57791" gradientUnits="userSpaceOnUse">
<stop stop-color="#0076C1"/>
<stop offset="0.0737" stop-color="#0B82C6"/>
<stop offset="0.2766" stop-color="#269ED3"/>
<stop offset="0.4546" stop-color="#36AFDA"/>
<stop offset="0.587" stop-color="#3CB5DD"/>
</linearGradient>
<linearGradient id="paint2_linear_13001_399" x1="10.1388" y1="24.2537" x2="27.8274" y2="6.56509" gradientUnits="userSpaceOnUse">
<stop stop-color="#00A482"/>
<stop offset="1" stop-color="#79DD83"/>
</linearGradient>
<linearGradient id="paint3_linear_13001_399" x1="24.8608" y1="13.5073" x2="28.5288" y2="10.1132" gradientUnits="userSpaceOnUse">
<stop stop-color="#00A482"/>
<stop offset="1" stop-color="#79DD83"/>
</linearGradient>
</defs>
</svg>
